<svg xmlns="http://www.w3.org/2000/svg" xmlns:xlink="http://www.w3.org/1999/xlink" viewBox="0 0 66.91 62.75"><defs><linearGradient id="linear-gradient" x1="-0.06" y1="29.28" x2="75.76" y2="38.81" gradientUnits="userSpaceOnUse"><stop offset="0" stop-color="#fccd00"/><stop offset="0.36" stop-color="#f1942e"/><stop offset="1" stop-color="#e5352b"/></linearGradient><linearGradient id="linear-gradient-2" x1="-1.42" y1="40.08" x2="74.4" y2="49.61" xlink:href="#linear-gradient"/><linearGradient id="linear-gradient-3" x1="-0.94" y1="36.25" x2="74.88" y2="45.77" xlink:href="#linear-gradient"/><linearGradient id="linear-gradient-4" x1="-0.63" y1="33.82" x2="75.19" y2="43.35" xlink:href="#linear-gradient"/><linearGradient id="linear-gradient-5" x1="-0.66" y1="34.01" x2="75.16" y2="43.54" xlink:href="#linear-gradient"/><linearGradient id="linear-gradient-6" x1="-1.16" y1="38.03" x2="74.66" y2="47.56" xlink:href="#linear-gradient"/><linearGradient id="linear-gradient-7" x1="-1.02" y1="36.63" x2="74.8" y2="46.15" gradientUnits="userSpaceOnUse"><stop offset="0" stop-color="#fccd4c"/><stop offset="0.36" stop-color="#f1942e"/><stop offset="1" stop-color="#e5352b"/></linearGradient><linearGradient id="linear-gradient-8" x1="-0.34" y1="31.47" x2="75.48" y2="41" xlink:href="#linear-gradient"/></defs><title>Asset 1</title><g id="Layer_2" data-name="Layer 2"><g id="Layer_1-2" data-name="Layer 1"><path d="M29.43,2.65c.14-.35.47-.6.28-.57a1,1,0,0,0-.66.34.31.31,0,0,0-.08.39C29.05,3,29.3,3,29.43,2.65Z" fill="#a62127" fill-rule="evenodd"/><path d="M55.19,20.19c-.12,0-.29.09-.24.35s-.06.59.05.46a1.09,1.09,0,0,0,.29-.56C55.32,20.32,55.31,20.23,55.19,20.19Z" fill="#a62127" fill-rule="evenodd"/><path d="M54,25a1.18,1.18,0,0,0,.32-.61c0-.13,0-.23-.12-.27s-.31.1-.25.38S53.91,25.16,54,25Z" fill="#a62127" fill-rule="evenodd"/><path d="M37.9,12.58a1.07,1.07,0,0,0-.61.11c-.11.06-.17.12-.13.24s.24.17.41,0S38.07,12.59,37.9,12.58Z" fill="#a62127" fill-rule="evenodd"/><path d="M47.53,33.71c-1-.41,4.15-2,5.94-8.66s2.56-14-8.71-19.82c-7.68-2.92-9.62-1.26-11.83-2A5.15,5.15,0,0,0,31.84,3a5.73,5.73,0,0,0,.51-.49c.43-.55.79-.85.55-1.75s-1.12-1.2-1.81.48-2,2.75-1.32,2.72a2.58,2.58,0,0,0,1-.26l0,.11c-.23.69-.35,1.32-1.31,1.28S29,2.82,28.21,3.23s-2,1.78-3.28,4.3c-.61,1.2-.83,2.21-1.36,2.58-3.77,2.66-11,6.43-9,16.11s14,18.9,23.26,15.37S51.45,31.34,51.25,31.08,48.5,34.12,47.53,33.71ZM42.64,12.83a12.35,12.35,0,0,1-3-1.13C41.56,11,43.68,12.84,42.64,12.83Zm2.28,10.66c-2.61,2.72-5.08,6.07-13.36,8.24,0,0-4.26,1.54-7-1.92s.54-9.64,4.84-11.64,5.41-3.09,3.66-5.52c-1.21-1.68-1.73-1.51-1.65-2s1-.38,1.33-.23a8.12,8.12,0,0,0,2.59.91c1,.12,1.49.11,2.5.17.25,0,1,.07,1,.31s-.66.51-.66.83c0,.16.19.1.29.09.4-.05,1-.48,1.44-.42,1.66.24,6,6.09,6.56,8C46.65,21.24,46.15,22.21,44.93,23.48Z" fill="#a62127" fill-rule="evenodd"/><path d="M54.63,25.47c-.78-.28-2.08,4.17-2.08,4.17C53.61,28.22,55.56,25.8,54.63,25.47Z" fill="#a62127" fill-rule="evenodd"/><path d="M55,16.31c-.53.08.11,3,.11,3C55.3,18.2,55.66,16.21,55,16.31Z" fill="#a62127" fill-rule="evenodd"/><path d="M37.89,12c-.09-.27-1.43-.2-2.2-.17C35.69,11.85,38,12.25,37.89,12Z" fill="#a62127" fill-rule="evenodd"/><path d="M57.8,38c.41.2,1.26-2.64,1.26-2.64C58.44,36.2,57.31,37.71,57.8,38Z" fill-rule="evenodd" fill="url(#linear-gradient)"/><path d="M48.05,47.14c.42-.15.67-.5,1.09-.66s.42-.94.16-.88C49.31,45.6,47.63,47.3,48.05,47.14Z" fill-rule="evenodd" fill="url(#linear-gradient-2)"/><path d="M54.88,43.48c.07-.36,0-.27-.17-.26s0-.37-.12-.53-.34.45-.36.63C54.16,43.95,54.81,43.83,54.88,43.48Z" fill-rule="evenodd" fill="url(#linear-gradient-3)"/><path d="M54.81,40.36c0-.26-.19-.3-.18.27s0,.73,0,.73C54.92,41.11,54.85,40.62,54.81,40.36Z" fill-rule="evenodd" fill="url(#linear-gradient-4)"/><path d="M54.81,42.48c.25,0,.65-1.16,1.27-1.94s.23-.94.1-.83a21,21,0,0,0-1.25,2.42C54.82,42.32,54.71,42.48,54.81,42.48Z" fill-rule="evenodd" fill="url(#linear-gradient-5)"/><path d="M61.74,46.53c-.17.38.1.27.35-.17.16-.28.63-1.06.44-1.16S61.92,46.13,61.74,46.53Z" fill-rule="evenodd" fill="url(#linear-gradient-6)"/><path d="M63.83,22.84c-1.15,0-2.32,3.87-2.4,4.4S60.37,32,60.61,32c.08,0,.46-1.41.6-1.28s-.62,2.48-1.45,4.09-.95,2.66-.57,2,.82-1.38.84-1.4c-1,3.92-7.7,11.28-7.3,10.57a6.91,6.91,0,0,0,1.19-2.1c-1.38,1.86-6.5,7.16-5.34,5.62s2.36-3.07,2.36-3.21a48.89,48.89,0,0,1-5.48,3.5l.5-1.11L44.5,50.1c-3.51,3-9.94,2.81-12.65,2.69C20.32,52.26,8.52,43.7,9.32,31c.23-3.65,1.39-5.6,1-6.37-.19-.43-.19.9-.58,1s.13-.53.11-.83-.09.22-.48.18.18-.73.62-3.18-2.32-4.47-4.23-4.15c-1.26.21-2,1-3.1,3.35-1.42,3-2.83,6.71-2.59,7,.11.14.66-1.2.71-1.16a31.47,31.47,0,0,0-.09,6.77,13,13,0,0,0,.4,3.28A12,12,0,0,1,0,33.52c-.15,1.94,1.23,6.14,2,7.74,3.79,7.68,13.4,20.52,30.51,21.44,15.71.85,25.87-8.76,28.52-12.28a15.06,15.06,0,0,0,3.23-7c.29-1.33,0-.88-.06-.71S61.85,48,61.16,47.89s.31-1.61,2-4.48S65,39.69,64.69,40s-3.09,4.76-3.27,4.46,2.32-3.78,2.71-4.57,1.63-3,1.9-3.8-.12.08-.4-.5.94-1.11,1.09-1.77-.21,0-.58-.56.77-1.59.75-2.36C67.07,24.2,64.75,22.81,63.83,22.84ZM49.74,51.52s2.84-2.92,3.2-2.42S51,50.83,49.74,51.52Z" fill-rule="evenodd" fill="url(#linear-gradient-7)"/><path d="M56.27,38a6.22,6.22,0,0,1-.42,1.35,8,8,0,0,0,.65-.85C56.8,38,56.29,37.56,56.27,38Z" fill-rule="evenodd" fill="url(#linear-gradient-8)"/></g></g></svg>