<?xml version="1.0" standalone="no"?>
<!DOCTYPE svg PUBLIC "-//W3C//DTD SVG 20010904//EN"
 "http://www.w3.org/TR/2001/REC-SVG-20010904/DTD/svg10.dtd">
<svg version="1.0" xmlns="http://www.w3.org/2000/svg"
 width="2000.000000pt" height="747.000000pt" viewBox="0 0 2000.000000 747.000000"
 preserveAspectRatio="xMidYMid meet">
<metadata>
Created by potrace 1.15, written by Peter Selinger 2001-2017
</metadata>
<g transform="translate(0.000000,747.000000) scale(0.100000,-0.100000)"
fill="#000000" stroke="none">
<path d="M16590 7405 c-187 -40 -328 -130 -402 -258 -18 -30 -27 -37 -43 -32
-118 36 -506 -10 -613 -71 -61 -36 -104 -133 -88 -199 8 -30 21 -33 23 -4 2
26 -4 20 68 53 33 15 54 21 48 15 -7 -7 -13 -21 -13 -31 0 -16 10 -18 83 -19
45 -1 107 -4 137 -8 48 -5 52 -8 35 -18 -11 -6 -56 -14 -100 -19 -44 -4 -84
-8 -90 -9 -5 0 -32 -5 -60 -10 -27 -5 -56 -8 -62 -7 -7 2 -13 -2 -13 -7 0 -6
-7 -8 -15 -5 -24 10 -8 -20 24 -44 35 -25 121 -42 217 -42 l73 0 6 -37 c20
-124 37 -160 91 -194 l34 -21 2 -186 2 -187 6 225 c4 124 11 234 16 245 7 16
19 20 61 20 40 1 58 6 76 23 13 12 27 22 32 22 5 0 17 7 27 17 14 13 18 13 18
2 0 -11 2 -11 11 1 7 11 9 -66 4 -265 -22 -1022 -33 -3240 -16 -3377 8 -64 1
-92 -32 -119 -25 -21 -152 -89 -167 -89 -5 0 -13 18 -16 39 l-6 39 -52 -31
c-84 -51 -149 -124 -169 -188 -46 -148 7 -266 135 -303 49 -15 123 -16 614
-14 l559 3 65 31 c109 52 159 120 168 230 8 101 -27 171 -102 205 -32 14 -66
19 -150 19 -91 0 -107 2 -102 15 3 8 11 54 18 102 14 97 17 989 3 1248 -5 110
-3 158 9 224 14 73 16 219 16 1175 0 1218 -8 1082 68 1216 50 88 66 152 66
275 1 138 -17 195 -82 266 -35 37 -62 55 -107 70 -77 27 -226 34 -315 14z
m-312 -311 l61 -7 -27 -36 c-15 -20 -33 -42 -39 -49 -7 -7 -13 -17 -13 -22 0
-11 -62 7 -70 21 -4 6 -10 11 -13 10 -4 0 -28 10 -54 22 -40 18 -65 22 -150
21 l-103 0 38 22 c33 20 51 22 173 23 75 1 163 -2 197 -5z m942 -4459 c0 -8 5
-15 10 -15 19 0 10 -37 -16 -61 -14 -13 -28 -23 -30 -21 -9 6 -70 -29 -122
-68 l-52 -40 -203 6 c-111 3 -215 7 -232 9 -16 2 -39 4 -50 5 l-20 1 20 9 c11
5 121 9 245 9 l225 1 70 56 c100 79 99 78 86 103 -11 20 -9 21 29 21 29 0 40
-4 40 -15z"/>
<path d="M2640 6964 c-272 -32 -420 -61 -595 -115 -386 -120 -785 -370 -1072
-673 -94 -100 -254 -304 -328 -421 -93 -145 -231 -476 -275 -658 -11 -45 -31
-164 -45 -265 -48 -348 -26 -698 61 -998 13 -48 23 -89 20 -91 -4 -4 -12 20
-41 122 -22 80 -33 105 -43 105 -10 0 -9 -27 3 -81 l7 -32 -37 23 -37 23 -62
-64 c-60 -61 -136 -191 -136 -231 0 -8 -7 -33 -16 -54 -22 -50 -31 -264 -15
-354 83 -493 376 -895 871 -1195 232 -141 414 -224 605 -276 147 -41 367 -51
490 -24 191 42 343 160 408 318 15 35 17 36 74 39 32 2 73 -1 92 -5 57 -14
592 2 756 23 39 5 104 11 145 15 41 3 100 9 130 13 48 7 60 5 97 -15 34 -20
56 -24 120 -24 87 0 95 2 563 100 459 96 468 98 525 129 62 34 109 101 126
180 19 91 3 566 -26 747 -4 27 2 36 66 90 38 33 72 60 76 60 3 0 13 -29 23
-65 63 -238 154 -375 400 -602 158 -146 297 -246 490 -353 122 -68 145 -81
345 -206 86 -54 195 -112 255 -136 l105 -43 348 0 c347 0 349 0 425 26 156 52
269 132 378 267 97 119 153 175 271 269 61 49 137 117 168 151 68 75 130 198
174 347 42 141 78 212 155 302 35 41 84 105 109 140 l44 65 6 -76 c14 -169 77
-320 217 -516 222 -312 457 -551 690 -700 102 -66 275 -147 407 -189 l109 -36
417 0 418 0 78 30 c170 66 296 181 380 348 55 110 92 141 246 207 190 81 325
201 432 383 94 160 256 534 294 679 28 107 41 293 24 352 -7 26 -18 73 -26
106 -17 80 -64 208 -94 260 -14 23 -25 55 -25 72 0 22 -9 37 -37 60 -62 48
-209 120 -222 108 -3 -3 0 -9 6 -13 6 -4 16 -27 22 -52 7 -25 19 -63 27 -84
13 -35 25 -84 40 -166 2 -14 7 -36 10 -50 4 -14 8 -38 10 -55 2 -16 6 -44 9
-62 27 -177 28 -518 2 -643 -10 -47 -20 -94 -22 -105 -2 -11 -4 -20 -5 -20 -1
0 -3 -8 -5 -18 -2 -10 -7 -26 -11 -35 -4 -9 -8 -24 -10 -32 -8 -40 -117 -251
-151 -295 -5 -5 -17 -23 -27 -40 -11 -16 -39 -50 -62 -75 -23 -25 -63 -69 -88
-98 -25 -29 -46 -50 -46 -47 0 5 -49 -36 -95 -81 -53 -49 -228 -150 -350 -200
-33 -14 -69 -29 -80 -34 -57 -24 -103 -38 -109 -33 -3 4 -6 2 -6 -4 0 -6 -15
-13 -32 -16 -18 -3 -96 -19 -173 -35 -130 -28 -153 -30 -311 -28 -94 2 -175 6
-180 8 -5 3 -35 9 -67 12 -132 16 -375 75 -472 117 -11 4 -41 15 -66 23 -104
33 -332 172 -428 261 -62 57 -151 146 -151 152 0 3 -11 19 -25 35 -40 47 -149
236 -189 326 -45 103 -81 227 -102 357 -20 114 -23 463 -6 555 5 30 9 56 7 58
-1 2 -16 -17 -32 -42 l-30 -46 -7 38 c-3 20 -6 53 -6 72 0 88 -69 264 -131
334 -75 86 -215 159 -331 172 l-62 7 19 -29 c10 -16 25 -35 32 -42 7 -8 11
-18 8 -22 -3 -5 -1 -17 4 -27 10 -20 44 -112 47 -128 1 -5 9 -34 18 -64 27
-91 17 -82 -15 14 -73 218 -183 404 -335 564 -209 220 -455 357 -764 424 -325
72 -593 69 -849 -8 -373 -112 -695 -320 -896 -580 -112 -145 -178 -271 -244
-470 -28 -84 -40 -109 -44 -93 -4 12 -9 19 -13 16 -6 -7 -34 15 -34 27 0 12
-27 34 -34 28 -3 -4 -6 8 -6 26 0 19 -4 30 -10 26 -12 -8 -13 46 -1 99 l10 39
-44 -43 c-59 -58 -101 -141 -131 -256 -30 -121 -31 -169 -4 -184 15 -8 20 -21
20 -51 0 -22 6 -50 14 -62 8 -12 17 -56 20 -97 3 -41 8 -100 12 -132 4 -33 2
-69 -4 -87 -7 -19 -7 -29 -2 -26 15 9 12 -49 -4 -70 -10 -14 -11 -27 -3 -58
10 -40 9 -42 -29 -75 -51 -45 -183 -132 -197 -132 -7 1 -3 8 9 18 18 15 19 21
9 46 -8 18 -15 24 -19 17 -12 -18 -46 -13 -46 7 0 10 -5 23 -12 30 -17 17 -34
-29 -37 -103 -1 -33 -4 -62 -7 -64 -6 -7 -5 245 3 334 l7 80 103 94 c57 51
103 95 101 96 -2 2 -314 9 -694 15 l-692 12 -73 -38 c-41 -20 -154 -82 -251
-136 -174 -98 -178 -101 -178 -133 0 -56 8 -58 230 -50 110 4 200 11 200 15 0
5 10 6 22 2 15 -4 19 -2 13 7 -4 7 -18 11 -31 8 -14 -2 -26 -1 -28 2 -3 4 -35
6 -73 4 -185 -5 -233 -4 -242 2 -19 11 -12 34 12 40 12 3 182 12 377 20 195 8
388 17 428 21 l72 6 -1 -154 c-1 -84 -3 -145 -6 -135 -7 26 -23 10 -23 -23 0
-21 -4 -27 -17 -25 -10 1 -12 0 -5 -2 9 -3 12 -81 12 -342 l0 -338 -130 -37
c-142 -41 -195 -62 -268 -106 -39 -24 -67 -31 -162 -42 -141 -16 -453 -16
-575 1 -411 55 -775 213 -1100 476 -49 40 -100 84 -112 97 l-22 24 24 -1 c13
-1 49 -20 79 -44 31 -23 56 -39 56 -35 0 3 18 -9 40 -26 22 -17 40 -29 40 -25
0 4 21 -8 48 -27 26 -18 53 -34 61 -36 8 -2 28 -13 45 -25 16 -11 26 -15 21
-7 -5 8 5 5 21 -7 16 -11 48 -32 72 -47 39 -25 42 -25 32 -6 -10 18 -4 17 45
-11 31 -17 58 -29 61 -27 8 9 -77 160 -131 233 -67 90 -156 181 -329 336 -372
332 -550 480 -663 552 l-62 40 -36 106 c-85 258 -105 412 -105 809 0 301 6
372 44 516 9 32 13 63 10 67 -3 5 -1 9 4 9 5 0 9 14 10 31 0 17 6 37 13 45 6
8 10 17 7 20 -8 8 -51 -88 -52 -118 -1 -14 -3 -24 -6 -21 -3 2 -10 -19 -16
-49 -7 -29 -20 -82 -30 -118 -16 -58 -18 -104 -18 -405 1 -304 3 -353 23 -464
12 -68 20 -125 18 -128 -3 -2 -14 46 -26 108 -32 167 -44 371 -38 642 4 235 6
246 40 389 83 343 190 567 377 791 239 286 639 523 997 591 210 40 514 44 718
11 332 -53 750 -255 984 -472 64 -60 83 -83 78 -97 -6 -15 -17 -9 -74 40 -83
70 -97 54 -19 -22 l56 -55 -24 -42 c-14 -23 -43 -73 -65 -112 -43 -74 -51
-114 -26 -135 18 -15 197 -6 243 11 15 6 72 54 127 107 451 438 465 452 465
481 0 38 -29 71 -87 100 -26 13 -64 32 -83 43 -19 11 -98 50 -175 88 -346 168
-667 262 -1095 321 -123 16 -219 21 -465 24 -170 2 -326 1 -345 -1z m2210
-585 c0 -9 -26 -40 -57 -69 -32 -29 -153 -145 -270 -258 -117 -113 -218 -209
-226 -213 -17 -10 -59 -17 -117 -20 -68 -3 -77 -1 -83 20 -6 23 6 27 109 36
l71 7 278 269 c270 259 294 278 295 228z m2245 -1149 c344 -94 593 -378 721
-824 87 -302 135 -765 106 -1016 -4 -30 -7 43 -8 165 -1 235 -28 504 -62 595
-3 8 -7 26 -9 39 -2 14 -9 34 -16 45 -6 12 -10 27 -8 35 4 20 -8 61 -17 61
-14 0 -33 -97 -43 -215 -5 -60 -13 -132 -18 -160 -6 -27 -10 -141 -10 -252 -1
-211 -9 -263 -51 -323 -9 -14 -36 -62 -60 -107 -23 -45 -60 -98 -81 -119 -58
-57 -107 -66 -378 -71 -332 -7 -397 9 -508 124 -120 124 -194 234 -233 349
-12 32 -43 169 -70 304 -71 354 -115 491 -189 584 -35 43 -33 54 35 251 25 72
47 157 51 190 3 33 13 69 21 80 9 11 -4 0 -29 -25 -24 -25 -42 -49 -41 -53 1
-5 -2 -6 -7 -3 -4 3 -21 -13 -37 -37 -16 -23 -32 -44 -35 -47 -24 -20 -93
-213 -109 -310 -7 -36 -14 -108 -17 -160 -3 -52 -7 -97 -9 -99 -11 -12 -2 238
11 315 37 209 110 361 234 485 113 113 218 167 406 209 123 27 342 23 460 -10z
m675 -31 c174 -82 373 -233 400 -305 14 -35 13 -138 -2 -185 -31 -107 -80 -76
-156 98 -66 149 -130 236 -240 322 -46 36 -99 79 -116 94 l-31 29 30 -7 c17
-4 68 -24 115 -46z m873 -1454 c2 -177 -3 -251 -22 -323 -7 -23 -9 -47 -6 -52
3 -5 1 -11 -5 -15 -5 -3 -10 -16 -10 -28 0 -12 -7 -35 -15 -51 -8 -15 -15 -32
-15 -37 0 -5 -17 -44 -37 -86 -21 -43 -37 -84 -36 -90 0 -7 -5 -13 -13 -13
-12 0 -19 -19 -15 -43 1 -5 -2 -6 -7 -3 -5 3 -18 -10 -28 -29 -10 -19 -23 -35
-27 -35 -5 0 -7 -7 -3 -15 3 -8 0 -14 -6 -12 -6 1 -17 -9 -25 -23 -7 -14 -13
-21 -13 -17 0 5 -28 -26 -62 -67 -35 -41 -66 -75 -71 -75 -4 -1 -24 -16 -43
-33 -102 -93 -124 -111 -124 -102 0 4 -13 -5 -29 -20 -16 -15 -32 -27 -35 -27
-6 1 -57 -29 -66 -39 -3 -3 -45 -25 -95 -49 -155 -74 -440 -161 -593 -180 -63
-8 -365 -5 -442 4 -157 20 -191 25 -198 29 -4 2 -27 7 -52 11 -24 4 -52 11
-61 15 -9 5 -27 11 -40 14 -57 12 -69 15 -87 25 -10 5 -29 12 -43 14 -43 7
-181 69 -213 96 -10 9 -21 15 -25 14 -3 -1 -28 12 -56 28 -78 46 -89 53 -100
65 -5 6 -35 30 -65 55 -96 78 -281 289 -253 289 4 0 3 4 -3 8 -20 14 -105 193
-139 296 -46 138 -44 165 3 45 199 -501 703 -850 1368 -945 178 -25 339 -22
464 9 427 105 813 376 1053 737 182 275 265 529 268 821 1 95 2 100 11 54 5
-27 10 -126 11 -220z m-738 -475 c-5 -39 -3 -53 10 -66 20 -21 15 -50 -30
-160 -81 -202 -215 -336 -442 -444 -102 -49 -140 -59 -148 -38 -4 10 -15 13
-31 10 -22 -4 -25 -2 -22 19 2 19 24 35 113 79 61 31 136 73 168 94 121 81
224 225 274 386 28 90 44 117 81 131 12 5 22 15 22 24 0 8 3 15 6 15 3 0 3
-22 -1 -50z m-6521 -779 c435 -257 804 -351 1371 -351 434 0 1062 69 1463 160
238 54 432 99 542 125 52 13 97 21 99 19 3 -3 -4 -13 -15 -23 -17 -15 -70 -31
-209 -61 -22 -5 -103 -24 -180 -44 -256 -64 -349 -85 -480 -106 -71 -12 -164
-29 -205 -37 -90 -18 -100 -19 -215 -33 -49 -5 -108 -13 -130 -16 -47 -6 -85
-9 -225 -19 -58 -4 -121 -8 -140 -11 -65 -7 -514 -7 -575 0 -33 4 -97 12 -143
17 -179 21 -443 97 -612 176 -162 75 -504 279 -525 313 -4 6 15 -4 41 -22 27
-19 89 -58 138 -87z"/>
<path d="M18605 5485 c-248 -40 -330 -64 -510 -150 -363 -175 -625 -469 -745
-835 -117 -357 -89 -904 64 -1284 19 -47 32 -86 30 -86 -7 0 -104 202 -104
216 0 6 -6 17 -14 24 -8 6 -12 19 -9 28 3 9 -8 -1 -24 -23 -42 -56 -53 -96
-53 -189 1 -109 12 -153 70 -272 101 -207 242 -378 400 -482 175 -116 435
-219 693 -274 147 -32 160 -33 387 -33 227 0 240 2 385 33 138 29 321 85 420
127 65 28 172 103 203 143 60 75 110 210 101 269 -4 20 -12 17 -105 -46 -237
-158 -497 -274 -689 -306 -16 -3 -41 -7 -55 -10 -14 -3 -86 -9 -160 -12 -153
-6 -348 10 -435 37 -16 5 -41 11 -55 14 -60 11 -289 104 -290 118 0 3 30 -7
68 -22 92 -39 228 -78 342 -97 139 -24 401 -21 550 5 270 48 523 172 730 356
77 68 185 170 172 162 -6 -4 -12 -3 -12 3 0 6 -27 -1 -60 -15 l-59 -26 -30 25
c-49 40 -93 50 -205 44 -84 -4 -129 -13 -271 -56 -93 -29 -199 -59 -235 -68
-82 -19 -223 -21 -320 -3 -41 8 -78 13 -82 12 -5 -1 -8 2 -8 8 0 5 -7 10 -15
10 -8 0 -15 4 -15 9 0 5 -7 12 -16 15 -8 3 -12 2 -9 -4 3 -6 -1 -7 -9 -4 -9 3
-16 11 -16 16 0 12 -30 37 -43 38 -5 0 -5 -5 -1 -12 4 -7 -7 -2 -24 11 -18 12
-30 26 -27 31 6 10 -23 35 -32 26 -3 -3 -1 -6 5 -6 7 0 12 -5 12 -11 0 -6 -18
3 -40 21 -22 17 -39 36 -37 43 1 6 -7 11 -18 12 -11 0 -19 6 -17 13 1 8 -1 11
-6 8 -14 -8 -146 130 -137 145 5 8 4 10 -3 5 -28 -17 -211 265 -286 442 -40
94 -116 342 -116 377 0 17 71 24 295 31 l190 6 225 90 c124 50 357 144 519
210 275 111 361 140 259 86 -23 -12 -54 -28 -68 -34 -140 -66 -180 -84 -184
-84 -9 0 -338 -162 -427 -210 -52 -28 -95 -51 -96 -51 -42 10 5 -34 67 -62 31
-14 74 -22 141 -25 115 -5 239 18 412 78 175 60 705 287 767 328 l55 37 3 354
c3 404 10 371 -91 417 -54 24 -77 28 -184 32 -87 3 -123 1 -123 -7 0 -6 3 -11
8 -11 4 0 13 -10 21 -22 8 -13 -10 -1 -40 26 -104 94 -272 194 -399 238 -166
58 -415 80 -585 53z m153 -236 c41 -10 99 -34 131 -53 82 -50 263 -230 289
-288 32 -71 27 -73 -29 -12 -29 30 -58 54 -66 54 -8 0 -11 5 -8 10 3 6 -1 10
-10 10 -8 0 -18 7 -21 15 -4 8 -11 15 -17 15 -5 0 -2 -9 8 -20 17 -19 16 -21
-24 -75 -49 -65 -102 -106 -187 -145 -34 -15 -95 -50 -136 -78 -126 -85 -190
-174 -226 -311 l-19 -74 -269 -108 c-148 -60 -275 -106 -282 -104 -7 3 -11 1
-8 -3 3 -4 -4 -13 -14 -19 -26 -17 -30 5 -37 212 -9 277 19 450 97 609 150
308 480 453 828 365z m-1139 -421 c-9 -19 -9 -21 1 -11 10 9 16 8 27 -3 13
-13 13 -20 -1 -61 -17 -48 -60 -103 -82 -103 -7 0 -15 -6 -18 -12 -5 -10 -7
-10 -12 1 -5 11 -8 11 -15 0 -7 -11 -9 -9 -9 6 0 29 45 121 81 166 34 44 45
50 28 17z"/>
<path d="M18485 5209 c-27 -5 -57 -10 -65 -12 -22 -4 -110 -45 -110 -51 0 -3
19 2 43 10 23 9 65 17 92 20 28 2 57 5 65 5 8 1 35 1 60 0 33 -1 41 -4 30 -11
-11 -7 -5 -10 24 -10 51 0 254 -48 284 -66 30 -19 28 -3 -3 24 -14 12 -25 20
-25 17 0 -3 -8 3 -18 13 -11 11 -40 25 -65 33 -26 7 -47 16 -47 20 0 3 -26 6
-57 7 -32 0 -80 3 -108 6 -27 2 -72 0 -100 -5z"/>
<path d="M13905 5399 c-282 -27 -553 -122 -780 -273 -112 -75 -255 -216 -326
-321 -101 -151 -167 -348 -189 -561 -38 -371 136 -726 441 -905 127 -74 273
-139 348 -154 106 -22 284 -35 389 -28 l90 6 -14 -59 c-20 -87 -18 -246 5
-337 23 -89 49 -143 102 -214 22 -29 39 -55 39 -58 0 -13 -39 16 -84 63 l-48
50 -45 -31 c-35 -25 -43 -37 -40 -55 9 -46 -18 -58 -167 -76 -460 -57 -819
-202 -1040 -420 -124 -123 -222 -274 -272 -421 -35 -104 -44 -290 -20 -405 48
-227 227 -431 507 -580 101 -53 108 -66 13 -24 -126 55 -250 139 -347 231 -71
69 -88 89 -133 165 l-40 66 -29 -71 c-28 -67 -30 -80 -29 -197 1 -110 4 -133
27 -193 70 -179 195 -296 450 -417 141 -67 266 -109 439 -147 118 -25 138 -27
473 -30 379 -5 461 2 685 54 252 58 503 161 662 272 95 66 419 341 509 432
162 163 264 402 291 679 13 140 13 159 0 285 -25 229 -94 354 -236 425 -59 30
-61 30 -64 11 -2 -13 -11 -21 -24 -21 -11 0 -22 -8 -25 -19 -3 -12 -17 -21
-40 -26 -37 -7 -37 -6 -17 -90 3 -11 -13 16 -34 60 -94 195 -261 361 -737 737
-104 83 -130 127 -130 223 1 145 83 254 466 620 130 124 161 172 223 355 43
127 53 230 37 380 -28 274 -127 476 -334 683 l-97 97 181 0 180 0 187 109
c103 59 201 115 217 124 28 15 -31 16 -750 15 -429 0 -820 -5 -870 -9z m20
-234 c211 -44 389 -204 514 -460 131 -267 199 -583 171 -791 -33 -252 -146
-421 -350 -526 -64 -33 -66 -33 -200 -33 -109 1 -150 5 -215 24 -87 24 -199
71 -190 79 3 3 -2 16 -10 28 -14 21 -13 24 7 39 18 12 21 18 12 33 -7 9 -44
69 -84 132 -97 153 -149 220 -205 261 -26 19 -56 43 -68 53 -13 13 -18 14 -15
5 3 -8 14 -50 23 -94 10 -43 29 -103 42 -133 33 -74 13 -57 -25 21 -113 236
-163 674 -106 929 39 178 123 284 293 372 142 73 262 91 406 61z m97 -2917
c-5 -5 -42 -18 -83 -29 -41 -11 -99 -27 -129 -36 -30 -9 -63 -17 -72 -18 -10
-1 -21 -5 -25 -10 -5 -4 -2 -6 5 -4 8 3 30 -11 51 -31 48 -46 90 -59 239 -71
140 -11 161 -18 266 -88 157 -106 265 -147 364 -138 51 4 60 2 86 -22 27 -25
28 -25 17 -3 -7 13 -19 26 -27 29 -7 3 -11 10 -7 17 3 6 3 8 -1 5 -6 -6 -66
46 -66 57 0 2 -8 12 -17 22 -10 10 -31 34 -48 53 -16 19 -52 58 -80 88 l-50
55 84 -64 c215 -162 357 -323 392 -442 10 -36 4 -36 -15 0 -21 38 -102 123
-109 115 -4 -3 -7 0 -7 7 0 9 -3 10 -9 4 -11 -11 -44 -146 -66 -269 -37 -203
-46 -235 -76 -270 -38 -43 -73 -58 -324 -144 -355 -120 -493 -140 -715 -102
-69 12 -159 30 -200 41 -86 22 -101 20 -36 -5 25 -10 43 -22 40 -27 -4 -6 2
-7 16 -3 14 4 20 3 17 -2 -6 -9 128 -55 201 -69 18 -4 35 -10 37 -14 3 -5 14
-6 24 -3 10 3 22 0 25 -6 4 -6 21 -11 37 -11 17 0 40 -5 52 -12 38 -21 393
-52 404 -35 2 4 11 4 19 -1 9 -5 56 -1 112 10 53 10 126 20 162 24 l65 5 -30
-26 c-39 -33 -111 -60 -222 -82 -69 -14 -138 -18 -323 -18 -206 0 -248 3 -342
23 -204 43 -479 156 -548 226 -102 101 -208 293 -236 428 -32 150 -2 309 84
435 50 74 106 125 222 203 199 134 344 179 680 214 67 7 171 3 162 -6z m1147
-1265 c-82 -121 -258 -263 -434 -350 -227 -113 -563 -210 -789 -228 -131 -11
-304 -7 -420 10 -60 8 -114 15 -119 15 -6 0 -8 2 -5 5 2 3 74 0 159 -5 430
-30 861 63 1202 257 132 75 299 204 379 292 29 33 55 58 56 56 2 -2 -11 -25
-29 -52z"/>
<path d="M9916 4993 c-92 -95 -126 -139 -166 -219 -22 -45 -41 -90 -43 -100
-2 -11 -7 -26 -10 -34 -3 -8 -9 -31 -12 -50 -3 -19 -9 -51 -13 -70 -9 -50 -8
-351 2 -440 4 -41 9 -91 10 -110 1 -19 5 -41 10 -48 4 -7 8 -32 9 -56 1 -24 6
-42 11 -39 5 4 6 1 3 -4 -4 -6 -3 -24 2 -39 5 -16 17 -63 26 -104 19 -80 96
-325 119 -375 42 -91 66 -146 66 -150 0 -9 68 -115 119 -185 64 -88 174 -197
251 -249 124 -83 297 -142 425 -145 66 -1 70 0 82 26 17 33 57 66 92 75 22 5
162 74 247 121 40 22 149 138 198 210 26 38 56 96 67 128 33 93 47 114 80 121
16 3 31 9 33 12 25 41 35 428 16 606 -14 133 -59 388 -69 398 -10 10 -37 -116
-111 -538 -33 -187 -63 -380 -66 -430 -8 -130 -42 -297 -65 -319 -17 -17 -427
-6 -542 15 -139 25 -254 108 -448 325 -241 269 -302 355 -414 590 l-75 157 0
152 c0 193 23 334 84 511 25 71 48 150 52 175 5 33 17 55 47 87 23 23 39 42
36 42 -3 0 -27 -21 -53 -47z"/>
<path d="M12590 3732 c-65 -209 -19 -429 119 -569 102 -103 284 -212 440 -262
197 -64 406 -52 509 29 25 20 72 79 72 89 -1 18 -55 64 -78 67 -177 22 -279
49 -397 108 -216 108 -282 153 -407 278 -65 64 -118 122 -118 129 0 7 -6 20
-14 28 -21 25 -76 128 -76 144 0 8 -6 19 -13 25 -10 9 -18 -6 -37 -66z"/>
</g>
</svg>
