<?xml version="1.0" encoding="UTF-8" standalone="no"?>
<!-- Generator: Adobe Illustrator 16.0.0, SVG Export Plug-In . SVG Version: 6.00 Build 0)  -->

<svg
   xmlns:dc="http://purl.org/dc/elements/1.1/"
   xmlns:cc="http://creativecommons.org/ns#"
   xmlns:rdf="http://www.w3.org/1999/02/22-rdf-syntax-ns#"
   xmlns:svg="http://www.w3.org/2000/svg"
   xmlns="http://www.w3.org/2000/svg"
   xmlns:sodipodi="http://sodipodi.sourceforge.net/DTD/sodipodi-0.dtd"
   xmlns:inkscape="http://www.inkscape.org/namespaces/inkscape"
   version="1.1"
   id="Capa_1"
   x="0px"
   y="0px"
   width="493.578px"
   height="493.578px"
   viewBox="0 0 493.578 493.578"
   style="enable-background:new 0 0 493.578 493.578;"
   xml:space="preserve"
   inkscape:version="0.91 r13725"
   sodipodi:docname="right-arrow.svg"><metadata
     id="metadata3375"><rdf:RDF><cc:Work
         rdf:about=""><dc:format>image/svg+xml</dc:format><dc:type
           rdf:resource="http://purl.org/dc/dcmitype/StillImage" /><dc:title></dc:title></cc:Work></rdf:RDF></metadata><defs
     id="defs3373" /><sodipodi:namedview
     pagecolor="#ffffff"
     bordercolor="#666666"
     borderopacity="1"
     objecttolerance="10"
     gridtolerance="10"
     guidetolerance="10"
     inkscape:pageopacity="0"
     inkscape:pageshadow="2"
     inkscape:window-width="1440"
     inkscape:window-height="897"
     id="namedview3371"
     showgrid="false"
     inkscape:zoom="1.4141635"
     inkscape:cx="246.789"
     inkscape:cy="246.789"
     inkscape:window-x="-8"
     inkscape:window-y="-8"
     inkscape:window-maximized="1"
     inkscape:current-layer="Capa_1" /><g
     id="g3337"
     transform="matrix(-1,0,0,1,493.579,0)"><path
       d="m 487.267,225.981 c 0,-17.365 -13.999,-31.518 -31.518,-31.518 l -261.248,0 L 305.35,83.615 c 12.24,-12.24 12.24,-32.207 0,-44.676 L 275.592,9.18 c -12.24,-12.24 -32.207,-12.24 -44.676,0 L 15.568,224.527 c -6.12,6.12 -9.256,14.153 -9.256,22.262 0,8.032 3.136,16.142 9.256,22.262 l 215.348,215.348 c 12.24,12.239 32.207,12.239 44.676,0 L 305.35,454.64 c 12.24,-12.24 12.24,-32.207 0,-44.676 l -110.849,-110.466 261.094,0 c 17.366,0 31.519,-14.153 31.519,-31.519 l 0.153,-41.998 z"
       id="path3339"
       inkscape:connector-curvature="0" /></g><g
     id="g3341" /><g
     id="g3343" /><g
     id="g3345" /><g
     id="g3347" /><g
     id="g3349" /><g
     id="g3351" /><g
     id="g3353" /><g
     id="g3355" /><g
     id="g3357" /><g
     id="g3359" /><g
     id="g3361" /><g
     id="g3363" /><g
     id="g3365" /><g
     id="g3367" /><g
     id="g3369" /></svg>