<?xml version="1.0" standalone="no"?>
<!DOCTYPE svg PUBLIC "-//W3C//DTD SVG 20010904//EN"
 "http://www.w3.org/TR/2001/REC-SVG-20010904/DTD/svg10.dtd">
<svg version="1.0" xmlns="http://www.w3.org/2000/svg"
 width="400.000000pt" height="400.000000pt" viewBox="0 0 400.000000 400.000000"
 preserveAspectRatio="xMidYMid meet">
<metadata>
Created by potrace 1.15, written by Peter Selinger 2001-2017
</metadata>
<g transform="translate(0.000000,400.000000) scale(0.100000,-0.100000)"
fill="#000000" stroke="none">
<path d="M1858 2513 l-136 -278 -105 217 c-102 209 -107 217 -152 244 l-47 27
-565 -6 c-310 -3 -567 -7 -569 -10 -8 -7 131 -191 162 -216 14 -11 41 -25 59
-31 28 -9 44 -27 85 -95 60 -99 106 -142 160 -151 34 -6 47 -16 101 -85 86
-110 126 -129 269 -129 94 0 112 -3 157 -25 l51 -26 190 -367 c105 -201 194
-368 199 -369 4 -1 69 99 143 222 74 124 137 225 140 225 3 0 66 -101 140
-225 74 -123 139 -223 143 -222 5 1 94 168 199 369 l190 367 51 26 c45 22 63
25 157 25 143 0 183 19 269 129 54 69 67 79 101 85 54 9 100 52 160 151 41 68
57 86 85 95 18 6 45 20 59 31 31 25 170 209 162 216 -2 3 -259 7 -569 10
l-565 6 -47 -27 c-45 -27 -50 -35 -152 -244 l-105 -217 -136 278 c-74 152
-138 277 -142 277 -4 0 -68 -125 -142 -277z m283 -78 c73 -151 137 -271 141
-267 4 4 54 105 112 226 58 120 115 230 128 244 45 49 68 52 345 51 142 -1
378 -4 524 -8 l266 -6 -56 -75 c-92 -124 -78 -120 -495 -120 -335 0 -352 -1
-393 -21 -24 -12 -54 -35 -66 -53 -13 -17 -99 -187 -192 -378 -93 -192 -172
-348 -175 -348 -3 0 -66 106 -140 235 -74 129 -137 234 -140 234 -3 0 -66
-105 -140 -234 -74 -129 -137 -235 -140 -235 -3 0 -82 156 -175 348 -93 191
-179 361 -192 378 -12 18 -42 41 -66 53 -41 20 -58 21 -393 21 -417 0 -403 -4
-495 120 l-56 75 271 6 c149 4 385 7 524 8 272 1 295 -2 340 -51 13 -14 70
-124 128 -244 58 -121 108 -222 112 -226 4 -4 68 116 141 267 74 151 137 275
141 275 4 0 67 -124 141 -275z m-848 -14 c25 -15 47 -45 76 -101 l42 -80 -321
0 c-343 0 -362 2 -407 51 -11 13 -37 51 -57 84 l-36 60 293 6 c361 7 367 7
410 -20z m1845 19 l273 0 -28 -50 c-41 -74 -82 -121 -119 -136 -26 -11 -105
-14 -354 -14 l-322 0 44 82 c36 68 50 85 88 106 37 19 54 23 95 18 28 -3 173
-6 323 -6z m-1569 -532 l148 -301 140 241 c102 176 143 239 150 230 6 -7 70
-116 143 -242 l133 -229 148 302 147 301 291 0 c160 0 291 -2 291 -5 0 -17
-99 -124 -134 -145 -36 -22 -55 -26 -166 -30 -201 -8 -179 14 -396 -405 -98
-189 -181 -345 -184 -345 -3 1 -66 102 -140 225 -74 124 -137 225 -140 225 -3
0 -66 -101 -140 -225 -74 -123 -137 -224 -140 -225 -3 0 -86 156 -184 345
-217 419 -195 397 -396 405 -111 4 -130 8 -166 30 -35 21 -134 128 -134 145 0
3 131 5 291 5 l291 0 147 -302z"/>
</g>
</svg>
